<svg width="42" height="42" viewBox="0 0 42 42" fill="none" xmlns="http://www.w3.org/2000/svg">
<path d="M21.0001 30.4506C20.499 30.4484 20.0186 30.2506 19.6612 29.8993L7.06042 17.2985C6.70534 16.9434 6.50586 16.4618 6.50586 15.9596C6.50586 15.4575 6.70534 14.9759 7.06042 14.6208C7.4155 14.2657 7.8971 14.0662 8.39926 14.0662C8.90142 14.0662 9.38301 14.2657 9.7381 14.6208L21.0001 25.8828L32.262 14.6208C32.6171 14.2657 33.0987 14.0662 33.6009 14.0662C34.103 14.0662 34.5846 14.2657 34.9397 14.6208C35.2948 14.9759 35.4943 15.4575 35.4943 15.9596C35.4943 16.4618 35.2948 16.9434 34.9397 17.2985L22.3389 29.8993C21.9816 30.2506 21.5012 30.4484 21.0001 30.4506Z" fill="#C4CACE" fill-opacity="0.33"/>
</svg>
